<?xml version="1.0" encoding="UTF-8"?>
<!DOCTYPE svg PUBLIC "-//W3C//DTD SVG 1.1//EN" "http://www.w3.org/Graphics/SVG/1.1/DTD/svg11.dtd">
<!-- Creator: CorelDRAW 2019 (64-Bit) -->
<svg xmlns="http://www.w3.org/2000/svg" xml:space="preserve" width="42cm" height="29.7cm" version="1.1" style="shape-rendering:geometricPrecision; text-rendering:geometricPrecision; image-rendering:optimizeQuality; fill-rule:evenodd; clip-rule:evenodd"
viewBox="0 0 42000 29700"
 xmlns:xlink="http://www.w3.org/1999/xlink"
 xmlns:xodm="http://www.corel.com/coreldraw/odm/2003">
 <defs>
  <style type="text/css">
   <![CDATA[
    .fil0 {fill:#758FC8}
    .fil1 {fill:#FEFEFE;fill-rule:nonzero}
    .fil2 {fill:#5E5872;fill-rule:nonzero}
   ]]>
  </style>
 </defs>
 <g id="Layer_x0020_1">
  <metadata id="CorelCorpID_0Corel-Layer"/>
  <g id="_2484667018224">
   <rect class="fil0" x="-3347.55" y="5687.13" width="33082.63" height="13497.67" rx="3733.46" ry="4083.32"/>
   <path class="fil1" d="M2739.58 11772.2c-423.3,0 -1938.97,-175.99 -1938.97,-729.09 0,-502.82 696.4,-1018.2 1857.05,-1018.2 1447.39,0 2512.45,515.38 2539.76,527.95 491.57,251.41 1119.69,88 1392.78,-364.54 273.09,-452.54 95.58,-1030.78 -395.98,-1282.19 -54.63,-25.14 -1515.68,-754.22 -3536.56,-754.22 -2225.72,0 -3905.25,1244.47 -3905.25,2903.77 0,2061.56 2512.47,2614.66 4000.82,2614.66l0 0c491.58,0 1938.97,188.56 1938.97,729.09 0,502.81 -696.39,1018.2 -1857.04,1018.2 -1447.4,0 -2512.46,-515.39 -2539.76,-527.96 -491.58,-251.41 -1119.69,-87.99 -1392.78,364.55 -273.1,452.53 -95.58,1030.77 395.98,1282.18 54.63,25.14 1515.67,766.8 3536.56,766.8 2225.72,0 3905.24,-1244.47 3905.24,-2903.77 0,-2061.56 -2512.46,-2614.66 -4000.82,-2614.66l0 -12.57z"/>
   <path class="fil1" d="M8624.8 8139.34c-559.84,0 -1024.09,427.39 -1024.09,942.78l0 7290.87c0,515.39 464.25,942.78 1024.09,942.78 559.85,0 1024.11,-427.39 1024.11,-942.78l0 -7290.87c0,-515.39 -464.26,-942.78 -1024.11,-942.78z"/>
   <path class="fil1" d="M13526.85 17290.63c2771.9,0 5038.58,-2072.03 5038.58,-4619.64l0 0 0 0 0 -12.57c-13.66,-2484.76 -2212.06,-4506.51 -4915.68,-4506.51l-1843.39 0c-559.84,0 -1010.44,414.82 -1010.44,930.21l0 7253.16c0,515.39 450.6,930.21 1010.44,930.21l1706.84 0 13.65 25.14zm-710.04 -1910.71l0 -5380.16 819.28 0c1583.94,0 2867.48,1179.53 2867.48,2633.52 0,1518.93 -1338.15,2746.64 -2990.37,2746.64l-696.39 0z"/>
   <path class="fil1" d="M24259.48 17303.2c2744.6,0 4983.96,-2059.46 4983.96,-4581.93 0,-2522.47 -2239.36,-4581.93 -4983.96,-4581.93 -2744.59,0 -4983.95,2059.46 -4983.95,4581.93 0,2522.47 2239.36,4581.93 4983.95,4581.93zm0 -7278.29c1624.91,0 2935.76,1202.57 2935.76,2696.36 0,1493.79 -1310.85,2696.36 -2935.76,2696.36 -1624.9,0 -2935.76,-1202.57 -2935.76,-2696.36 0,-1493.79 1310.86,-2696.36 2935.76,-2696.36z"/>
   <path class="fil2" d="M38957.96 15581.05l-4710.86 -2853.5 4710.86 -2853.49c477.91,-289.12 614.46,-867.36 300.4,-1307.33 -314.05,-439.96 -983.14,-565.67 -1461.05,-276.55l-4465.08 2677.51 0 -1898.14c0,-515.39 -450.61,-942.78 -1010.45,-942.78 -559.84,0 -1010.44,427.39 -1010.44,942.78l0 7278.3c0,515.39 450.6,942.78 1010.44,942.78 559.84,0 1010.45,-427.39 1010.45,-942.78l0 -1898.14 4465.08 2677.51c177.51,100.56 382.33,150.84 573.5,150.84 327.71,0 655.42,-150.84 846.58,-427.39 314.07,-439.97 191.17,-1018.21 -286.75,-1307.33l27.32 37.71z"/>
   <path class="fil2" d="M44542.79 17303.2c2198.39,0 3987.16,-1646.73 3987.16,-3672.67l0 -4546.31c0,-515.39 -450.6,-932.31 -1010.44,-932.31 -559.85,0 -1010.45,416.92 -1010.45,932.31l0 4546.31c0,995.16 -873.9,1799.67 -1952.62,1799.67 -1078.72,0 -1952.62,-804.51 -1952.62,-1799.67l0 -4571.46c0,-515.38 -450.6,-932.3 -1010.44,-932.3 -559.85,0 -1010.45,416.92 -1010.45,932.3l0 4571.46c0,2025.94 1788.77,3672.67 3987.16,3672.67l-27.3 0z"/>
  </g>
 </g>
</svg>
